<svg width="130" height="32" viewBox="0 0 130 32" fill="none" xmlns="http://www.w3.org/2000/svg">
<path d="M14.0013 24.702V32L28 24.6074V17.3103L14.0013 24.702Z" fill="url(#paint0_linear_218_566)"/>
<path d="M20.2677 10.6071L27.1749 6.95803L14.0013 0V7.29785L20.2677 10.6071Z" fill="#1F7C5D"/>
<path d="M8.5607 12.7861V20.0863L14.001 22.9587V15.6618L8.5607 12.7861Z" fill="#3FFFC5"/>
<path d="M28 8.26613L14.0013 15.6618V22.9587L28 15.5661V8.26613Z" fill="url(#paint1_linear_218_566)"/>
<path d="M0.833633 6.95378L7.6994 10.6241L14.001 7.29785V0L0.833633 6.95378Z" fill="url(#paint2_linear_218_566)"/>
<path d="M6.90952 20.9584V11.9107L0 8.2628V24.6072L14.001 31.9998V24.7018L6.90952 20.9584Z" fill="#3FFFC5"/>
<path d="M30.256 24.5V7.7H32.824L40.168 19.964H38.824L46.048 7.7H48.616L48.64 24.5H45.688L45.664 12.332H46.288L40.144 22.58H38.752L32.512 12.332H33.232V24.5H30.256ZM49.6019 24.5L57.1619 7.7H60.2339L67.8179 24.5H64.5539L58.0499 9.356H59.2979L52.8179 24.5H49.6019ZM53.0819 20.612L53.9219 18.164H62.9939L63.8339 20.612H53.0819ZM68.7544 24.5V7.7H75.6664C77.1544 7.7 78.4264 7.94 79.4824 8.42C80.5544 8.9 81.3784 9.588 81.9544 10.484C82.5304 11.38 82.8184 12.444 82.8184 13.676C82.8184 14.908 82.5304 15.972 81.9544 16.868C81.3784 17.764 80.5544 18.452 79.4824 18.932C78.4264 19.412 77.1544 19.652 75.6664 19.652H70.4824L71.8744 18.188V24.5H68.7544ZM71.8744 18.524L70.4824 17.012H75.5224C76.8984 17.012 77.9304 16.724 78.6184 16.148C79.3224 15.556 79.6744 14.732 79.6744 13.676C79.6744 12.604 79.3224 11.78 78.6184 11.204C77.9304 10.628 76.8984 10.34 75.5224 10.34H70.4824L71.8744 8.804V18.524ZM88.6405 24.668C87.5685 24.668 86.5365 24.532 85.5445 24.26C84.5685 23.972 83.7925 23.628 83.2165 23.228L84.3685 20.948C84.9445 21.316 85.6325 21.62 86.4325 21.86C87.2325 22.1 88.0325 22.22 88.8325 22.22C89.7765 22.22 90.4565 22.092 90.8725 21.836C91.3045 21.58 91.5205 21.236 91.5205 20.804C91.5205 20.452 91.3765 20.188 91.0885 20.012C90.8005 19.82 90.4245 19.676 89.9605 19.58C89.4965 19.484 88.9765 19.396 88.4005 19.316C87.8405 19.236 87.2725 19.132 86.6965 19.004C86.1365 18.86 85.6245 18.66 85.1605 18.404C84.6965 18.132 84.3205 17.772 84.0325 17.324C83.7445 16.876 83.6005 16.284 83.6005 15.548C83.6005 14.732 83.8325 14.028 84.2965 13.436C84.7605 12.828 85.4085 12.364 86.2405 12.044C87.0885 11.708 88.0885 11.54 89.2405 11.54C90.1045 11.54 90.9765 11.636 91.8565 11.828C92.7365 12.02 93.4645 12.292 94.0405 12.644L92.8885 14.924C92.2805 14.556 91.6645 14.308 91.0405 14.18C90.4325 14.036 89.8245 13.964 89.2165 13.964C88.3045 13.964 87.6245 14.1 87.1765 14.372C86.7445 14.644 86.5285 14.988 86.5285 15.404C86.5285 15.788 86.6725 16.076 86.9605 16.268C87.2485 16.46 87.6245 16.612 88.0885 16.724C88.5525 16.836 89.0645 16.932 89.6245 17.012C90.2005 17.076 90.7685 17.18 91.3285 17.324C91.8885 17.468 92.4005 17.668 92.8645 17.924C93.3445 18.164 93.7285 18.508 94.0165 18.956C94.3045 19.404 94.4485 19.988 94.4485 20.708C94.4485 21.508 94.2085 22.204 93.7285 22.796C93.2645 23.388 92.6005 23.852 91.7365 24.188C90.8725 24.508 89.8405 24.668 88.6405 24.668ZM102.792 24.668C101.48 24.668 100.312 24.388 99.2881 23.828C98.2641 23.252 97.4561 22.468 96.8641 21.476C96.2721 20.484 95.9761 19.356 95.9761 18.092C95.9761 16.812 96.2721 15.684 96.8641 14.708C97.4561 13.716 98.2641 12.94 99.2881 12.38C100.312 11.82 101.48 11.54 102.792 11.54C104.12 11.54 105.296 11.82 106.32 12.38C107.36 12.94 108.168 13.708 108.744 14.684C109.336 15.66 109.632 16.796 109.632 18.092C109.632 19.356 109.336 20.484 108.744 21.476C108.168 22.468 107.36 23.252 106.32 23.828C105.296 24.388 104.12 24.668 102.792 24.668ZM102.792 22.1C103.528 22.1 104.184 21.94 104.76 21.62C105.336 21.3 105.784 20.836 106.104 20.228C106.44 19.62 106.608 18.908 106.608 18.092C106.608 17.26 106.44 16.548 106.104 15.956C105.784 15.348 105.336 14.884 104.76 14.564C104.184 14.244 103.536 14.084 102.816 14.084C102.08 14.084 101.424 14.244 100.848 14.564C100.288 14.884 99.8401 15.348 99.5041 15.956C99.1681 16.548 99.0001 17.26 99.0001 18.092C99.0001 18.908 99.1681 19.62 99.5041 20.228C99.8401 20.836 100.288 21.3 100.848 21.62C101.424 21.94 102.072 22.1 102.792 22.1ZM112.909 24.5V10.964C112.909 9.62 113.301 8.548 114.085 7.748C114.885 6.932 116.021 6.524 117.493 6.524C118.021 6.524 118.517 6.58 118.981 6.692C119.461 6.804 119.861 6.98 120.181 7.22L119.365 9.476C119.141 9.3 118.885 9.172 118.597 9.092C118.309 8.996 118.013 8.948 117.709 8.948C117.085 8.948 116.613 9.124 116.293 9.476C115.973 9.812 115.813 10.324 115.813 11.012V12.452L115.909 13.796V24.5H112.909ZM110.797 14.18V11.78H119.341V14.18H110.797ZM126.184 24.668C124.776 24.668 123.688 24.308 122.92 23.588C122.152 22.852 121.768 21.772 121.768 20.348V8.852H124.768V20.276C124.768 20.884 124.92 21.356 125.224 21.692C125.544 22.028 125.984 22.196 126.544 22.196C127.216 22.196 127.776 22.02 128.224 21.668L129.064 23.804C128.712 24.092 128.28 24.308 127.768 24.452C127.256 24.596 126.728 24.668 126.184 24.668ZM119.656 14.18V11.78H128.2V14.18H119.656Z" fill="black"/>
<defs>
<linearGradient id="paint0_linear_218_566" x1="20.9675" y1="16.4942" x2="20.9675" y2="32" gradientUnits="userSpaceOnUse">
<stop stop-color="#17EDA0"/>
<stop offset="1" stop-color="#0CAC7C"/>
</linearGradient>
<linearGradient id="paint1_linear_218_566" x1="20.9675" y1="7.44987" x2="20.9675" y2="22.9587" gradientUnits="userSpaceOnUse">
<stop stop-color="#17EDA0"/>
<stop offset="1" stop-color="#0CAC7C"/>
</linearGradient>
<linearGradient id="paint2_linear_218_566" x1="7.38614" y1="-0.59023" x2="7.38614" y2="10.6241" gradientUnits="userSpaceOnUse">
<stop stop-color="#17EDA0"/>
<stop offset="1" stop-color="#0CAC7C"/>
</linearGradient>
</defs>
</svg>
