<svg width="200" height="44" viewBox="0 0 200 44" fill="none" xmlns="http://www.w3.org/2000/svg">
<path d="M20.0015 33.9653V44.0001L39.9996 33.8353V23.8018L20.0015 33.9653Z" fill="url(#paint0_linear_237_696)"/>
<path d="M28.9535 14.5847L38.8209 9.5673L20.0015 0V10.0345L28.9535 14.5847Z" fill="#E0E2E5"/>
<path d="M12.23 17.5806V27.6184L20.0019 31.5679V21.5346L12.23 17.5806Z" fill="white"/>
<path d="M39.9996 11.3657L20.0015 21.5347V31.568L39.9996 21.4032V11.3657Z" fill="url(#paint1_linear_237_696)"/>
<path d="M1.19092 9.56145L10.9992 14.6082L20.0015 10.0345V0L1.19092 9.56145Z" fill="url(#paint2_linear_237_696)"/>
<path d="M9.87074 28.818V16.3774L0 11.3616V33.8351L20.0015 43.9999V33.9652L9.87074 28.818Z" fill="white"/>
<path d="M46.9875 35V9.8H51.8115L62.5395 27.584H59.9835L70.5315 9.8H75.3195L75.3915 35H69.9195L69.8835 18.188H70.8915L62.4675 32.336H59.8395L51.2355 18.188H52.4595V35H46.9875ZM76.2583 35L87.4903 9.8H93.2503L104.518 35H98.3983L89.1823 12.752H91.4863L82.2343 35H76.2583ZM81.8743 29.6L83.4223 25.172H96.3823L97.9663 29.6H81.8743ZM105.333 35V9.8H116.241C118.497 9.8 120.441 10.172 122.073 10.916C123.705 11.636 124.965 12.68 125.853 14.048C126.741 15.416 127.185 17.048 127.185 18.944C127.185 20.816 126.741 22.436 125.853 23.804C124.965 25.172 123.705 26.228 122.073 26.972C120.441 27.692 118.497 28.052 116.241 28.052H108.573L111.165 25.424V35H105.333ZM111.165 26.072L108.573 23.3H115.917C117.717 23.3 119.061 22.916 119.949 22.148C120.837 21.38 121.281 20.312 121.281 18.944C121.281 17.552 120.837 16.472 119.949 15.704C119.061 14.936 117.717 14.552 115.917 14.552H108.573L111.165 11.78V26.072ZM136.02 35.288C134.364 35.288 132.768 35.096 131.232 34.712C129.72 34.304 128.52 33.8 127.632 33.2L129.504 29.168C130.392 29.72 131.436 30.176 132.636 30.536C133.86 30.872 135.06 31.04 136.236 31.04C137.532 31.04 138.444 30.884 138.972 30.572C139.524 30.26 139.8 29.828 139.8 29.276C139.8 28.82 139.584 28.484 139.152 28.268C138.744 28.028 138.192 27.848 137.496 27.728C136.8 27.608 136.032 27.488 135.192 27.368C134.376 27.248 133.548 27.092 132.708 26.9C131.868 26.684 131.1 26.372 130.404 25.964C129.708 25.556 129.144 25.004 128.712 24.308C128.304 23.612 128.1 22.712 128.1 21.608C128.1 20.384 128.448 19.304 129.144 18.368C129.864 17.432 130.896 16.7 132.24 16.172C133.584 15.62 135.192 15.344 137.064 15.344C138.384 15.344 139.728 15.488 141.096 15.776C142.464 16.064 143.604 16.484 144.516 17.036L142.644 21.032C141.708 20.48 140.76 20.108 139.8 19.916C138.864 19.7 137.952 19.592 137.064 19.592C135.816 19.592 134.904 19.76 134.328 20.096C133.752 20.432 133.464 20.864 133.464 21.392C133.464 21.872 133.668 22.232 134.076 22.472C134.508 22.712 135.072 22.904 135.768 23.048C136.464 23.192 137.22 23.324 138.036 23.444C138.876 23.54 139.716 23.696 140.556 23.912C141.396 24.128 142.152 24.44 142.824 24.848C143.52 25.232 144.084 25.772 144.516 26.468C144.948 27.14 145.164 28.028 145.164 29.132C145.164 30.332 144.804 31.4 144.084 32.336C143.364 33.248 142.32 33.968 140.952 34.496C139.608 35.024 137.964 35.288 136.02 35.288ZM157.845 35.288C155.781 35.288 153.945 34.856 152.337 33.992C150.753 33.128 149.493 31.952 148.557 30.464C147.645 28.952 147.189 27.236 147.189 25.316C147.189 23.372 147.645 21.656 148.557 20.168C149.493 18.656 150.753 17.48 152.337 16.64C153.945 15.776 155.781 15.344 157.845 15.344C159.885 15.344 161.709 15.776 163.317 16.64C164.925 17.48 166.185 18.644 167.097 20.132C168.009 21.62 168.465 23.348 168.465 25.316C168.465 27.236 168.009 28.952 167.097 30.464C166.185 31.952 164.925 33.128 163.317 33.992C161.709 34.856 159.885 35.288 157.845 35.288ZM157.845 30.68C158.781 30.68 159.621 30.464 160.365 30.032C161.109 29.6 161.697 28.988 162.129 28.196C162.561 27.38 162.777 26.42 162.777 25.316C162.777 24.188 162.561 23.228 162.129 22.436C161.697 21.644 161.109 21.032 160.365 20.6C159.621 20.168 158.781 19.952 157.845 19.952C156.909 19.952 156.069 20.168 155.325 20.6C154.581 21.032 153.981 21.644 153.525 22.436C153.093 23.228 152.877 24.188 152.877 25.316C152.877 26.42 153.093 27.38 153.525 28.196C153.981 28.988 154.581 29.6 155.325 30.032C156.069 30.464 156.909 30.68 157.845 30.68ZM172.903 35V15.2C172.903 13.016 173.551 11.276 174.847 9.98C176.143 8.66 177.991 8 180.391 8C181.207 8 181.987 8.084 182.731 8.252C183.499 8.42 184.147 8.684 184.675 9.044L183.199 13.112C182.887 12.896 182.539 12.728 182.155 12.608C181.771 12.488 181.363 12.428 180.931 12.428C180.115 12.428 179.479 12.668 179.023 13.148C178.591 13.604 178.375 14.3 178.375 15.236V17.036L178.519 19.448V35H172.903ZM169.915 20.384V16.064H183.343V20.384H169.915ZM194.061 35.288C191.781 35.288 190.005 34.712 188.733 33.56C187.461 32.384 186.825 30.644 186.825 28.34V11.348H192.441V28.268C192.441 29.084 192.657 29.72 193.089 30.176C193.521 30.608 194.109 30.824 194.853 30.824C195.741 30.824 196.497 30.584 197.121 30.104L198.633 34.064C198.057 34.472 197.361 34.784 196.545 35C195.753 35.192 194.925 35.288 194.061 35.288ZM183.837 20.384V16.064H197.265V20.384H183.837Z" fill="white"/>
<defs>
<linearGradient id="paint0_linear_237_696" x1="29.9532" y1="22.6796" x2="29.9532" y2="44.0001" gradientUnits="userSpaceOnUse">
<stop stop-color="#EDFAF5"/>
<stop offset="1" stop-color="#F1F1F1"/>
</linearGradient>
<linearGradient id="paint1_linear_237_696" x1="29.9532" y1="10.2434" x2="29.9532" y2="31.568" gradientUnits="userSpaceOnUse">
<stop stop-color="#EDFAF5"/>
<stop offset="1" stop-color="#F1F1F1"/>
</linearGradient>
<linearGradient id="paint2_linear_237_696" x1="10.5516" y1="-0.811566" x2="10.5516" y2="14.6082" gradientUnits="userSpaceOnUse">
<stop stop-color="#EDFAF5"/>
<stop offset="1" stop-color="#F1F1F1"/>
</linearGradient>
</defs>
</svg>
